<svg id="Capa_1" enable-background="new 0 0 497 497" height="512" viewBox="0 0 497 497" width="512" xmlns="http://www.w3.org/2000/svg"><g><path d="m169.633 497h-24.519c-3.96 0-6.975-3.552-6.331-7.46l19.769-119.921h41.997l-19.385 117.596c-.931 5.644-5.81 9.785-11.531 9.785z" fill="#a3847e"/><path d="m200.55 369.62-19.39 117.59c-.93 5.65-5.81 9.79-11.53 9.79h-18.77c5.72 0 10.6-4.14 11.53-9.79l19.39-117.59z" fill="#8e746e"/><path d="m415.01 235.04-59.244 97.855-120.916 87.615h-146.6c-3.46 0-6.26-2.8-6.26-6.26v-44.63l19.536-70.11-19.536-59.17v-199.38c0-1.77.73-3.36 1.91-4.5z" fill="#9dc9eb"/><path d="m323.686 497h24.519c3.96 0 6.975-3.552 6.331-7.46l-19.769-119.921h-41.997l19.385 117.596c.931 5.644 5.811 9.785 11.531 9.785z" fill="#a3847e"/><path d="m348.21 497h-18.78c3.96 0 6.98-3.55 6.34-7.46l-19.77-119.92h18.77l19.77 119.92c.64 3.91-2.37 7.46-6.33 7.46z" fill="#8e746e"/><path d="m266.532 61.921h-41.281v-48.606c0-7.354 5.962-13.315 13.315-13.315h14.65c7.354 0 13.315 5.961 13.315 13.315v48.606z" fill="#a3847e"/><path d="m253.217 0h-14.651c-1.17 0-2.298.166-3.379.449 5.714 1.498 9.936 6.682 9.936 12.866v48.606h21.408v-48.606c.001-7.354-5.961-13.315-13.314-13.315z" fill="#8e746e"/><path d="m415.01 40.96v194.08l-23.25 38.4-35.99 59.45-49.1-27.46v-56.79c0-8.44-6.51-15.4-14.92-16.06-59.65-4.72-91.2-40.36-91.2-40.36v-85.8l106.12-71.72h102.08c3.46 0 6.26 2.8 6.26 6.26z" fill="#4da6d1"/><path d="m415.01 40.96v194.08l-23.25 38.4v-232.48c0-3.46-2.8-6.26-6.26-6.26h23.25c3.46 0 6.26 2.8 6.26 6.26z" fill="#3f96bf"/><path d="m227.046 298.741c4.089 3.504 4.059 9.839-.061 13.305l-56.395 47.444c-7.78 6.54-17.61 10.13-27.78 10.13h-60.82v-47.61l8.18-15.92-8.18-15.92v-49.83l25.71-8.23c5.61-1.8 11.47-2.71 17.37-2.71 6.79 0 13.48 1.22 19.76 3.54s12.15 5.74 17.31 10.17z" fill="#fe646f"/><path d="m162.14 243.11c-5.16-4.43-11.03-7.85-17.31-10.17s-12.97-3.54-19.76-3.54c-3.709 0-7.401.361-11.026 1.075 2.571.558 5.089 1.366 7.537 2.467 11.393 2.288 58.254 45.302 80.323 64.447 4.779 4.145 4.759 11.556-.044 15.672-20.906 17.918-56.629 54.161-78.044 56.56h18.994c10.17 0 20-3.59 27.78-10.13l56.395-47.443c4.121-3.467 4.15-9.801.061-13.305z" fill="#fd4755"/><path d="m163.98 309.001-15.361 7.561c-7.282 3.584-15.29 5.448-23.406 5.448h-43.223v-31.84h27.989c2.817 0 5.623.369 8.344 1.097l45.1 12.072c2.711.726 3.074 4.423.557 5.662z" fill="#ffdfcf"/><path d="m306.67 34.7v81.384c0 8.052-5.936 14.878-13.915 15.957-24.779 3.351-75.515 15.606-92.205 60.179h-42.039c-4.33 0-7.841-3.51-7.841-7.841v-83.049c0-2.193-.918-4.285-2.532-5.77l-64.238-59.1c1.13-1.09 2.66-1.76 4.35-1.76z" fill="#efedf0"/><path d="m415.01 235.04v179.208c0 3.458-2.803 6.262-6.262 6.262h-173.898v-107.113c0-4.4 3.567-7.967 7.967-7.967h108.246c2.6 0 4.707-2.107 4.707-4.707v-26.796c0-2.6 2.107-4.707 4.707-4.707h18.726c2.6 0 4.707-2.107 4.707-4.707v-24.766c0-2.6 2.107-4.707 4.707-4.707z" fill="#8ce1a4"/><path d="m391.761 235.04v179.208c0 3.458-2.803 6.262-6.262 6.262h23.249c3.458 0 6.262-2.803 6.262-6.262v-179.208z" fill="#78c2a4"/><circle cx="313.51" cy="185.919" fill="#fccd7f" r="17.734"/><path d="m364.148 190.88c-1.439 0-2.894-.413-4.178-1.276-19.206-12.91-41.289-16.887-65.638-11.811-18.638 3.884-31.684 11.874-31.813 11.955-3.516 2.175-8.139 1.101-10.324-2.412s-1.118-8.127 2.391-10.318c.604-.378 15.047-9.297 36.137-13.793 28.257-6.024 55.097-1.208 77.617 13.93 3.438 2.311 4.351 6.971 2.04 10.409-1.448 2.153-3.818 3.316-6.232 3.316z" fill="#d6a555"/></g></svg>