<?xml version="1.0" encoding="UTF-8"?>
<svg xmlns="http://www.w3.org/2000/svg" id="Layer_3" data-name="Layer 3" viewBox="0 0 64 64" width="512" height="512"><path d="M47.357,50.5A2.952,2.952,0,0,0,49,51a3,3,0,0,0,3-3,2.955,2.955,0,0,0-.32-1.32A2.955,2.955,0,0,0,53,47a2.986,2.986,0,0,0,2.2-5.02,2.977,2.977,0,0,0,1.83-5.17A3,3,0,0,0,59,34a3.193,3.193,0,0,0-.09-.7,2.981,2.981,0,0,0-.26-4.8,2.989,2.989,0,0,0-.62-5.31A2.987,2.987,0,0,0,56,18c-.06,0-.13.02-.19.02A2.887,2.887,0,0,0,56,17a3,3,0,0,0-2.02-2.82A1.1,1.1,0,0,0,54,14a3,3,0,0,0-2.02-2.82A1.1,1.1,0,0,0,52,11a3,3,0,0,0-3-3,2.887,2.887,0,0,0-1.02.19c0-.06.02-.13.02-.19a3,3,0,0,0-3-3,2.942,2.942,0,0,0-1.47.4A2.983,2.983,0,0,0,41,4a2.942,2.942,0,0,0-1.47.4,2.973,2.973,0,0,0-4.72-.43,2.989,2.989,0,0,0-5.62,0,2.973,2.973,0,0,0-4.72.43A2.942,2.942,0,0,0,23,4a2.983,2.983,0,0,0-2.53,1.4A2.942,2.942,0,0,0,19,5a3,3,0,0,0-3,3c0,.06.02.13.02.19A2.887,2.887,0,0,0,15,8a3,3,0,0,0-3,3,1.1,1.1,0,0,0,.02.18A3,3,0,0,0,10,14a1.1,1.1,0,0,0,.02.18A3,3,0,0,0,8,17a2.887,2.887,0,0,0,.19,1.02c-.06,0-.13-.02-.19-.02a2.987,2.987,0,0,0-2.03,5.19,2.989,2.989,0,0,0-.62,5.31,2.981,2.981,0,0,0-.26,4.8A3.193,3.193,0,0,0,5,34a3,3,0,0,0,1.97,2.81A2.977,2.977,0,0,0,8.8,41.98a2.982,2.982,0,0,0,3.52,4.7A2.955,2.955,0,0,0,12,48a3,3,0,0,0,3,3,2.952,2.952,0,0,0,1.643-.5Z" style="fill:#182f3a"/><path d="M15.71,50.906a3.076,3.076,0,0,0,.61-.226l0,.007a2.9,2.9,0,0,0,.326-.184H47.357A2.952,2.952,0,0,0,49,51a3,3,0,0,0,3-3,2.955,2.955,0,0,0-.32-1.32A2.955,2.955,0,0,0,53,47a2.986,2.986,0,0,0,2.2-5.02,2.977,2.977,0,0,0,1.83-5.17A3,3,0,0,0,59,34a3.193,3.193,0,0,0-.09-.7,2.981,2.981,0,0,0-.26-4.8,2.989,2.989,0,0,0-.62-5.31A2.987,2.987,0,0,0,56,18c-.06,0-.13.02-.19.02A2.887,2.887,0,0,0,56,17a3,3,0,0,0-2.02-2.82A1.1,1.1,0,0,0,54,14a2.947,2.947,0,0,0-.767-1.977C53.155,12.017,53.08,12,53,12a2.887,2.887,0,0,0-1.02.19c0-.06.02-.13.02-.19a3,3,0,0,0-3-3,2.942,2.942,0,0,0-1.47.4A2.983,2.983,0,0,0,45,8a2.942,2.942,0,0,0-1.47.4,2.973,2.973,0,0,0-4.72-.43,2.989,2.989,0,0,0-5.62,0,2.973,2.973,0,0,0-4.72.43A2.942,2.942,0,0,0,27,8a2.983,2.983,0,0,0-2.53,1.4A2.942,2.942,0,0,0,23,9a3,3,0,0,0-3,3c0,.06.02.13.02.19A2.887,2.887,0,0,0,19,12a3,3,0,0,0-3,3,1.1,1.1,0,0,0,.02.18A3,3,0,0,0,14,18a1.1,1.1,0,0,0,.02.18A3,3,0,0,0,12,21a2.887,2.887,0,0,0,.19,1.02c-.06,0-.13-.02-.19-.02a2.987,2.987,0,0,0-2.03,5.19,2.989,2.989,0,0,0-.62,5.31,2.981,2.981,0,0,0-.26,4.8A3.193,3.193,0,0,0,9,38a3,3,0,0,0,1.97,2.81,2.977,2.977,0,0,0,1.83,5.17,3.05,3.05,0,0,0-.5.756,3.106,3.106,0,0,0-.183.494c-.011.039-.026.077-.035.117A2.834,2.834,0,0,0,12,48a3,3,0,0,0,3,3,2.836,2.836,0,0,0,.654-.081Z" style="fill:#203a49"/><path d="M48,37v9A16,16,0,0,1,32,62h0A16,16,0,0,1,16,46V37h0A15,15,0,0,1,31,22h2A15,15,0,0,1,48,37Z" style="fill:#996945"/><path d="M33,22H31a14.938,14.938,0,0,0-9.559,3.441A14.938,14.938,0,0,0,18,35v9A15.994,15.994,0,0,0,44.266,56.266,15.931,15.931,0,0,0,48,46V37A15,15,0,0,0,33,22Z" style="fill:#b07a4e"/><path d="M48,37h1a4,4,0,0,1,4,4h0a4,4,0,0,1-4,4H48" style="fill:#996945"/><path d="M16,37H15a4,4,0,0,0-4,4h0a4,4,0,0,0,4,4h1" style="fill:#996945"/><path d="M51,33v4.54A3.989,3.989,0,0,0,49,37H48A15.005,15.005,0,0,0,33,22H31A15.023,15.023,0,0,0,16,37H15a3.989,3.989,0,0,0-2,.54V33a19,19,0,0,1,38,0Z" style="fill:#eeab45"/><path d="M32,18.46a19,19,0,0,0-19,19v.08A3.989,3.989,0,0,1,15,37h1A15.023,15.023,0,0,1,31,22h2A15.005,15.005,0,0,1,48,37h1a3.989,3.989,0,0,1,2,.54v-.08a19.017,19.017,0,0,0-19-19Z" style="fill:#f2c14e"/><path d="M32,39h0a2.306,2.306,0,0,0-2.283,1.98l-.027.19A5.625,5.625,0,0,1,24.121,46h0a5.9,5.9,0,0,1-5.845-5.07h0a5.85,5.85,0,0,0-1.655-3.309h0a2.12,2.12,0,0,1-.621-1.5h0A2.122,2.122,0,0,1,18.121,34h1.8A73.449,73.449,0,0,1,32,35h0a73.449,73.449,0,0,1,12.083-1h1.8A2.122,2.122,0,0,1,48,36.121h0a2.12,2.12,0,0,1-.621,1.5h0a5.85,5.85,0,0,0-1.655,3.309h0A5.9,5.9,0,0,1,39.879,46h0a5.625,5.625,0,0,1-5.569-4.83l-.027-.19A2.306,2.306,0,0,0,32,39Z" style="fill:#6cc2f1"/><path d="M30.758,55H28V53h2.758a9.18,9.18,0,0,0,6.535-2.707l1.414,1.414A11.169,11.169,0,0,1,30.758,55Z" style="fill:#e15240"/><path d="M32,48.288a3.391,3.391,0,0,1-2.413-1L28.293,46l1.414-1.414L31,45.874a1.45,1.45,0,0,0,2,0l1.292-1.292L35.707,46l-1.293,1.293A3.392,3.392,0,0,1,32,48.288Z" style="fill:#84583a"/><path d="M45.879,34h-1.8A73.44,73.44,0,0,0,32,35a73.44,73.44,0,0,0-12.083-1h-1.8a2.118,2.118,0,0,0-2.055,1.619,2.115,2.115,0,0,0,.555,1,5.85,5.85,0,0,1,1.655,3.309A5.9,5.9,0,0,0,24.121,45a5.625,5.625,0,0,0,5.569-4.83l.027-.19a2.306,2.306,0,0,1,4.566,0l.027.19A5.625,5.625,0,0,0,39.879,45a5.9,5.9,0,0,0,5.845-5.07,5.85,5.85,0,0,1,1.655-3.309,2.115,2.115,0,0,0,.555-1A2.118,2.118,0,0,0,45.879,34Z" style="fill:#93d3f5"/><path d="M18.238,40.762l6.583-6.583c-.627-.042-1.255-.091-1.883-.117l-5.18,5.18A5.852,5.852,0,0,1,18.238,40.762Z" style="fill:#fff"/><path d="M28.677,34.53l-9.2,9.2a5.9,5.9,0,0,0,2.116,1.677L32,35C30.9,34.816,29.788,34.663,28.677,34.53Z" style="fill:#fff"/><path d="M37.718,34.282,32.84,39.16a2.3,2.3,0,0,1,1.094.906l5.93-5.93C39.148,34.177,38.432,34.22,37.718,34.282Z" style="fill:#fff"/><path d="M45.879,34H44.207L35.42,42.787a5.622,5.622,0,0,0,2.114,1.679l9.838-9.838A2.1,2.1,0,0,0,45.879,34Z" style="fill:#fff"/><path d="M59.511,22.9A3.963,3.963,0,0,0,60,21a4.006,4.006,0,0,0-3-3.874c0-.042,0-.084,0-.126a3.992,3.992,0,0,0-2.027-3.462,4,4,0,0,0-2-3A4.007,4.007,0,0,0,48.874,7,4.007,4.007,0,0,0,45,4a3.856,3.856,0,0,0-1.168.181,4,4,0,0,0-4-1A3.968,3.968,0,0,0,35.1,2.489a3.969,3.969,0,0,0-6.2,0,3.968,3.968,0,0,0-4.733.692,4,4,0,0,0-4,1A3.856,3.856,0,0,0,19,4a4.007,4.007,0,0,0-3.874,3,4.016,4.016,0,0,0-4.1,3.536,4.005,4.005,0,0,0-2,3A4,4,0,0,0,7,17c0,.042,0,.084,0,.126A4.006,4.006,0,0,0,4,21a3.963,3.963,0,0,0,.489,1.9,3.973,3.973,0,0,0-.6,5.6,3.967,3.967,0,0,0,.135,5.151A3.261,3.261,0,0,0,4,34a4.009,4.009,0,0,0,1.489,3.1A3.96,3.96,0,0,0,5,39a4,4,0,0,0,2.263,3.586A3.946,3.946,0,0,0,7,44a4,4,0,0,0,4,4,3.98,3.98,0,0,0,5.059,3.851,16.971,16.971,0,0,0,31.882,0A3.98,3.98,0,0,0,53,48a4,4,0,0,0,4-4,3.946,3.946,0,0,0-.263-1.414A4,4,0,0,0,59,39a3.96,3.96,0,0,0-.489-1.9A4.009,4.009,0,0,0,60,34a3.261,3.261,0,0,0-.019-.349,3.967,3.967,0,0,0,.135-5.151,3.973,3.973,0,0,0-.6-5.6ZM17,36.121A1.122,1.122,0,0,1,18.121,35h1.8a72.733,72.733,0,0,1,11.919.986,1,1,0,0,0,.328,0A72.733,72.733,0,0,1,44.083,35h1.8a1.121,1.121,0,0,1,.793,1.914,6.892,6.892,0,0,0-1.938,3.874A4.928,4.928,0,0,1,39.879,45,4.648,4.648,0,0,1,35.3,41.033l-.027-.2a3.306,3.306,0,0,0-6.546.006l-.027.185A4.648,4.648,0,0,1,24.121,45a4.928,4.928,0,0,1-4.855-4.212,6.892,6.892,0,0,0-1.938-3.874A1.129,1.129,0,0,1,17,36.121ZM49,38a3,3,0,0,1,0,6Zm1-1.9a5,5,0,0,0-1-.1h-.012a3.1,3.1,0,0,0-.065-.549A15.917,15.917,0,0,0,33,21H31A16.028,16.028,0,0,0,15.911,31.667l1.885.666A14.027,14.027,0,0,1,31,23h2A13.921,13.921,0,0,1,46.442,33.057,3.071,3.071,0,0,0,45.879,33h-1.8A74.741,74.741,0,0,0,32,33.986,74.741,74.741,0,0,0,19.917,33h-1.8a3.119,3.119,0,0,0-3.109,3H15a5,5,0,0,0-1,.1V33a18,18,0,0,1,36,0ZM15,38v6a3,3,0,0,1,0-6ZM32,61A15.017,15.017,0,0,1,17,46V40.033a4.8,4.8,0,0,1,.285,1.038A6.941,6.941,0,0,0,24.121,47a6.66,6.66,0,0,0,6.56-5.693l.026-.185a1.307,1.307,0,0,1,2.586-.006l.026.2A6.66,6.66,0,0,0,39.879,47a6.941,6.941,0,0,0,6.836-5.929A4.8,4.8,0,0,1,47,40.033V46A15.017,15.017,0,0,1,32,61ZM58.1,29.332a1.982,1.982,0,0,1,.175,3.2,1,1,0,0,0-.336.99A2.207,2.207,0,0,1,58,34a2,2,0,0,1-1.32,1.873,1,1,0,0,0-.325,1.674A1.978,1.978,0,0,1,57,39a2,2,0,0,1-1.87,1.982,1,1,0,0,0-.664,1.676A1.976,1.976,0,0,1,55,44a2,2,0,0,1-2,2,1.963,1.963,0,0,1-.873-.215,1,1,0,0,0-1.342,1.342A1.963,1.963,0,0,1,51,48a2,2,0,0,1-2,2,1.964,1.964,0,0,1-.477-.07A16.927,16.927,0,0,0,49,46a4.983,4.983,0,0,0,3-8.974V33a20,20,0,0,0-40,0v4.026A4.983,4.983,0,0,0,15,46a16.927,16.927,0,0,0,.477,3.93A1.964,1.964,0,0,1,15,50a2,2,0,0,1-2-2,1.963,1.963,0,0,1,.215-.873,1,1,0,0,0-1.342-1.342A1.963,1.963,0,0,1,11,46a2,2,0,0,1-2-2,1.969,1.969,0,0,1,.533-1.34,1,1,0,0,0-.663-1.677A2.005,2.005,0,0,1,7,39a1.978,1.978,0,0,1,.645-1.453,1,1,0,0,0-.325-1.674A2,2,0,0,1,6,34a2.207,2.207,0,0,1,.065-.479,1,1,0,0,0-.336-.99,1.982,1.982,0,0,1,.175-3.2,1,1,0,0,0,0-1.664,1.991,1.991,0,0,1,.416-3.542,1,1,0,0,0,.325-1.674A1.988,1.988,0,0,1,7.942,19c.051.007.2.021.248.021a1,1,0,0,0,.937-1.352A1.855,1.855,0,0,1,9,17a2,2,0,0,1,1.35-1.876A1.018,1.018,0,0,0,11,14a2,2,0,0,1,1.35-1.876A1.018,1.018,0,0,0,13,11a1.989,1.989,0,0,1,2.667-1.874A1,1,0,0,0,17.02,8.19.74.74,0,0,0,17,8a2,2,0,0,1,2-2,1.936,1.936,0,0,1,.976.269,1,1,0,0,0,1.339-.335,1.975,1.975,0,0,1,2.661-.665,1,1,0,0,0,1.339-.335,1.975,1.975,0,0,1,3.138-.289,1,1,0,0,0,1.674-.325,1.989,1.989,0,0,1,3.746,0,1,1,0,0,0,1.675.325,1.974,1.974,0,0,1,3.137.289,1,1,0,0,0,1.339.335,1.974,1.974,0,0,1,2.661.665,1,1,0,0,0,1.339.335A1.936,1.936,0,0,1,45,6a1.993,1.993,0,0,1,2,1.939c-.008.052-.023.2-.023.251a1,1,0,0,0,1.352.936A1.982,1.982,0,0,1,51,11a1,1,0,0,0,.654,1.12A1.99,1.99,0,0,1,53,14a1,1,0,0,0,.654,1.12A2,2,0,0,1,55,17a1.855,1.855,0,0,1-.127.668,1,1,0,0,0,.937,1.352A.722.722,0,0,0,56,19a2,2,0,0,1,2,2,1.975,1.975,0,0,1-.645,1.452,1,1,0,0,0,.325,1.674,1.991,1.991,0,0,1,.416,3.542,1,1,0,0,0,0,1.664Z"/><path d="M30.758,53H28v2h2.758a11.169,11.169,0,0,0,7.949-3.293l-1.414-1.414A9.18,9.18,0,0,1,30.758,53Z"/><path d="M32,48.288a3.392,3.392,0,0,0,2.414-1L35.707,46l-1.414-1.414L33,45.873a1.45,1.45,0,0,1-2,0l-1.293-1.293L28.293,46l1.294,1.294A3.391,3.391,0,0,0,32,48.288Z"/></svg>
