<svg height="512pt" viewBox="0 -11 512.00021 512" width="512pt" xmlns="http://www.w3.org/2000/svg"><path d="m501.039062 21.03125c-2.28125-4.785156-6.59375-8.3125-11.71875-9.65625-19.8125-5.203125-72.5-14.328125-108.652343 22.730469l104.261719 123.847656s48.058593-69.886719 16.109374-136.921875zm0 0" fill="#3d4851"/><path d="m451.078125 142.632812-.105469.15625c.355469-.527343 32.238282-48.867187 16.488282-94.3125-5.316407-.988281-11.890626-1.84375-19.042969-1.9375-17.242188-.242187-34.8125 4.328126-47.148438 16.972657zm0 0" fill="#e8e8e8"/><path d="m10.960938 21.03125c2.28125-4.785156 6.59375-8.3125 11.71875-9.65625 19.8125-5.203125 72.5-14.328125 108.652343 22.730469l-104.261719 123.847656s-48.058593-69.886719-16.109374-136.921875zm0 0" fill="#3d4851"/><path d="m60.921875 142.632812.105469.15625c-.355469-.527343-32.238282-48.867187-16.488282-94.3125 5.316407-.988281 11.890626-1.84375 19.042969-1.9375 17.242188-.242187 34.8125 4.328126 47.148438 16.972657zm0 0" fill="#e8e8e8"/><path d="m313.402344 6.769531c-11.179688-2.6875-22.652344-4.605469-34.367188-5.695312l-23.035156 21.191406-23.035156-21.191406c-11.710938 1.089843-23.1875 3.007812-34.367188 5.695312l-19.820312 24.421875-19.820313-11.203125c-79.539062 34.386719-137.230469 109.746094-146.441406 199.472657l16.503906 20.066406-16.503906 30.535156c1.351563 13.21875 3.75 26.117188 7.128906 38.613281l18.988281 12.371094-6.945312 21.871094c14.371094 32.789062 35.71875 61.820312 62.171875 85.226562h324.28125c26.453125-23.40625 47.800781-52.425781 62.171875-85.214843l-5.914062-21.882813 17.957031-12.382813c3.378906-12.496093 5.777343-25.382812 7.128906-38.601562l-21.304687-33.859375 21.304687-16.742187c-9.210937-89.726563-66.902344-165.085938-146.441406-199.472657l-19.820313 13.609375zm0 0" fill="#ff8f71"/><path d="m189.863281 19.988281c15.246094-6.59375 31.164063-11.585937 47.425781-14.9375l-4.296874-3.953125c-11.597657 1.089844-23.109376 3-34.429688 5.714844zm0 0" fill="#fa695b"/><path d="m12.542969 270.011719c1.347656 13.058593 3.730469 26.007812 7.136719 38.6875l18.953124 12.347656-6.945312 21.871094c14.238281 32.484375 35.613281 61.730469 62.171875 85.226562 0 0 30.90625 0 30.902344-.003906-58.757813-52.023437-89.359375-130.597656-81.339844-208.679687 8.550781-83.304688 58.894531-154.214844 129.707031-191.460938l-14.171875-8.011719c-39.378906 17.023438-74.015625 44.546875-99.59375 78.984375-23.460937 31.582032-39.203125 69.078125-45.234375 107.96875-.640625 4.140625-1.179687 8.3125-1.613281 12.519532l16.503906 20.066406zm0 0" fill="#fa695b"/><path d="m288.261719 260.671875c74.210937 14.957031 130.09375 80.527344 130.09375 159.148437 0 2.792969-.070313 5.566407-.210938 8.324219-43.175781 38.222657-99.957031 61.421875-162.144531 61.421875s-118.96875-23.199218-162.144531-61.421875c-.140625-2.757812-.210938-5.53125-.210938-8.324219 0-78.621093 55.882813-144.191406 130.09375-159.148437zm0 0" fill="#e8e8e8"/><path d="m288.261719 260.671875c-1.617188 16.394531-15.441407 29.207031-32.261719 29.207031s-30.648438-12.8125-32.261719-29.207031c10.433594-2.097656 21.21875-3.207031 32.261719-3.207031s21.828125 1.109375 32.261719 3.207031zm0 0" fill="#333a41"/><path d="m357.367188 231.800781c-4.265626 0-7.726563 3.460938-7.726563 7.726563v19.710937c0 4.265625 3.460937 7.726563 7.726563 7.726563 4.269531 0 7.726562-3.460938 7.726562-7.726563v-19.710937c0-4.265625-3.457031-7.726563-7.726562-7.726563zm0 0" fill="#333a41"/><path d="m154.632812 231.800781c-4.269531 0-7.726562 3.460938-7.726562 7.726563v19.710937c0 4.265625 3.457031 7.726563 7.726562 7.726563 4.265626 0 7.726563-3.460938 7.726563-7.726563v-19.710937c0-4.265625-3.460937-7.726563-7.726563-7.726563zm0 0" fill="#333a41"/><path d="m293.347656 311.660156c-3.214844-2.808594-8.09375-2.480468-10.902344.730469-2.5 2.855469-6.257812 4.496094-10.316406 4.496094-4.054687 0-7.8125-1.636719-10.3125-4.496094-.023437-.027344-.050781-.050781-.078125-.078125-1.449219-1.613281-3.585937-2.558594-5.75-2.554688-2.1875.003907-4.371093.984376-5.804687 2.632813-2.5 2.855469-6.257813 4.496094-10.316406 4.496094-4.058594 0-7.816407-1.636719-10.3125-4.496094-2.808594-3.210937-7.691407-3.539063-10.902344-.730469-3.214844 2.808594-3.542969 7.6875-.734375 10.902344 5.433593 6.214844 13.433593 9.777344 21.949219 9.777344 5.839843 0 11.4375-1.675782 16.128906-4.734375 4.695312 3.058593 10.292968 4.734375 16.132812 4.734375 8.515625 0 16.515625-3.5625 21.949219-9.777344 2.808594-3.214844 2.480469-8.09375-.730469-10.902344zm0 0" fill="#333a41"/><g fill="#3d4851"><path d="m500.78125 244.78125c0 8.542969-.433594 16.96875-1.296875 25.28125 0 0-16.636719-24.765625-81.128906-33.003906 0 0 36.6875-31.585938 81.128906-17.597656.855469 8.324218 1.296875 16.773437 1.296875 25.320312zm0 0"/><path d="m492.355469 308.664062v.011719c-3.175781 11.792969-7.210938 23.230469-12.042969 34.242188-9.652344-9.890625-24.601562-21.726563-47.636719-33.75 0 0 29.132813-10.878907 59.679688-.503907zm0 0"/><path d="m93.644531 237.058594c-64.492187 8.238281-81.128906 33.003906-81.128906 33.003906-.863281-8.3125-1.296875-16.738281-1.296875-25.28125 0-8.546875.441406-16.996094 1.296875-25.320312 44.441406-13.988282 81.128906 17.597656 81.128906 17.597656zm0 0"/><path d="m79.324219 309.167969c-23.035157 12.023437-37.984375 23.859375-47.636719 33.75-4.832031-11.011719-8.867188-22.449219-12.042969-34.242188 30.546875-10.386719 59.679688.492188 59.679688.492188zm0 0"/><path d="m256 134.039062c-23.128906-49.347656-24.042969-107.046874-23.035156-132.964843 7.582031-.710938 15.269531-1.074219 23.035156-1.074219 7.769531 0 15.453125.363281 23.035156 1.074219 1.007813 25.917969.09375 83.617187-23.035156 132.964843zm0 0"/><path d="m198.597656 6.769531c-2.925781 24.210938-8.953125 51.582031-20.757812 76.78125-9.703125-20.707031-15.503906-42.886719-18.882813-63.5625 12.691407-5.480469 25.941407-9.921875 39.640625-13.21875zm0 0"/><path d="m353.042969 19.988281c-3.378907 20.675781-9.179688 42.855469-18.882813 63.5625-11.804687-25.199219-17.832031-52.570312-20.757812-76.78125 13.699218 3.296875 26.949218 7.738281 39.640625 13.21875zm0 0"/></g><path d="m260.871094 489.511719c3.507812-.070313 7.042968-.15625 10.542968-.4375.011719 0 .023438 0 .039063-.003907-56.117187-3.496093-107.121094-25.890624-146.691406-60.929687-10.8125-9.570313-20.660157-20.050781-29.5-31.25-1.0625 7.492187-1.617188 15.144531-1.617188 22.929687 0 2.792969.070313 5.5625.210938 8.324219 6.746093 5.972657 13.824219 11.578125 21.203125 16.785157 40.902344 28.867187 90.699218 44.636718 140.941406 44.636718 1.628906 0 3.25-.027344 4.871094-.054687zm0 0" fill="#d2d1d7"/><path d="m49.679688 304.203125c-9.070313-.164063-19.453126.878906-30.007813 4.464844 1.753906 6.519531 3.773437 12.972656 6.0625 19.328125 1.816406 5.039062 3.800781 10.015625 5.953125 14.921875 5.785156-5.925781 13.492188-12.554688 23.683594-19.503907-2.152344-6.320312-4.054688-12.730468-5.691406-19.210937zm0 0" fill="#333a41"/><path d="m11.253906 247.636719c.09375 7.476562.523438 14.949219 1.289063 22.386719.476562-.675782 7.796875-10.769532 29.703125-20.039063-.242188-10.140625 1.40625-32.636719 1.53125-33.691406-9.644532-.96875-20.210938-.308594-31.257813 3.167969-.1875 1.816406-.347656 3.640624-.492187 5.464843-.042969.492188-.859375 15.628907-.773438 22.710938zm0 0" fill="#333a41"/><path d="m248.757812.121094c-.773437.019531-15.769531.382812-15.792968.980468-.058594 1.527344-.113282 3.175782-.152344 4.917969 10.230469-2.308593 20.609375-3.972656 31.058594-4.945312 2.515625-.238281 5.042968-.417969 7.582031-.578125-.015625 0-.027344 0-.042969 0-7.527344-.5390628-15.113281-.5937502-22.652344-.375zm0 0" fill="#333a41"/><path d="m161.6875 34.410156c9.03125-5.386718 18.4375-10.214844 28.175781-14.421875 2.425781-1.050781 4.871094-2.050781 7.332031-3.015625.527344-3.4375.996094-6.835937 1.398438-10.167968-5.421875 1.300781-10.800781 2.773437-16.121094 4.445312-7.96875 2.496094-15.820312 5.414062-23.488281 8.726562-.007813.003907-.019531.007813-.027344.011719.773438 4.738281 1.683594 9.5625 2.730469 14.421875zm0 0" fill="#333a41"/></svg>